<?xml version="1.0" encoding="UTF-8"?>
<svg version="1.1" xmlns="http://www.w3.org/2000/svg" width="32" height="32">
<path d="M0 0 C10.56 0 21.12 0 32 0 C32 10.56 32 21.12 32 32 C21.44 32 10.88 32 0 32 C0 21.44 0 10.88 0 0 Z " fill="#2A3848" transform="translate(0,0)"/>
<path d="M0 0 C0.598125 0.350625 1.19625 0.70125 1.8125 1.0625 C1.8125 2.7125 1.8125 4.3625 1.8125 6.0625 C2.1425 3.7525 2.4725 1.4425 2.8125 -0.9375 C4.7925 -0.9375 6.7725 -0.9375 8.8125 -0.9375 C8.77769531 -0.31101562 8.74289063 0.31546875 8.70703125 0.9609375 C8.67996094 1.77820313 8.65289062 2.59546875 8.625 3.4375 C8.59019531 4.24960938 8.55539063 5.06171875 8.51953125 5.8984375 C8.61621094 6.61257812 8.71289062 7.32671875 8.8125 8.0625 C9.8025 8.7225 10.7925 9.3825 11.8125 10.0625 C12.23070365 14.08840716 11.94195079 18.00637531 11.8125 22.0625 C7.8525 22.0625 3.8925 22.0625 -0.1875 22.0625 C-0.1875 18.1025 -0.1875 14.1425 -0.1875 10.0625 C-1.5075 9.7325 -2.8275 9.4025 -4.1875 9.0625 C-3.8575 8.0725 -3.5275 7.0825 -3.1875 6.0625 C-4.1775 5.4025 -5.1675 4.7425 -6.1875 4.0625 C-5.875 2.125 -5.875 2.125 -5.1875 0.0625 C-2.1875 -0.9375 -2.1875 -0.9375 0 0 Z " fill="#CCB14A" transform="translate(11.1875,4.9375)"/>
<path d="M0 0 C0.598125 0.350625 1.19625 0.70125 1.8125 1.0625 C1.77125 1.825625 1.73 2.58875 1.6875 3.375 C1.59169176 6.28968416 1.59169176 6.28968416 3.8125 9.0625 C3.4825 9.3925 3.1525 9.7225 2.8125 10.0625 C0.47305264 9.77519945 -1.8614143 9.44313221 -4.1875 9.0625 C-3.8575 8.0725 -3.5275 7.0825 -3.1875 6.0625 C-4.1775 5.4025 -5.1675 4.7425 -6.1875 4.0625 C-5.875 2.125 -5.875 2.125 -5.1875 0.0625 C-2.1875 -0.9375 -2.1875 -0.9375 0 0 Z " fill="#9C8C46" transform="translate(11.1875,4.9375)"/>
<path d="M0 0 C-1.75 5.75 -1.75 5.75 -4 8 C-6.625 8.125 -6.625 8.125 -9 8 C-9 6.68 -9 5.36 -9 4 C-7.02 3.67 -5.04 3.34 -3 3 C-5.97 2.505 -5.97 2.505 -9 2 C-5.96271914 -1.03728086 -4.06215635 -1.35405212 0 0 Z " fill="#A89548" transform="translate(22,15)"/>
<path d="M0 0 C2.64 0.33 5.28 0.66 8 1 C6 3 6 3 3.375 3.125 C2.59125 3.08375 1.8075 3.0425 1 3 C1 4.32 1 5.64 1 7 C4.465 6.505 4.465 6.505 8 6 C8 6.99 8 7.98 8 9 C2.25 9.125 2.25 9.125 0 8 C0 5.36 0 2.72 0 0 Z " fill="#D6B84B" transform="translate(12,16)"/>
<path d="M0 0 C0.33 2.64 0.66 5.28 1 8 C-2 7 -2 7 -5 5 C-4.6875 3.0625 -4.6875 3.0625 -4 1 C-1 0 -1 0 0 0 Z " fill="#736D44" transform="translate(10,4)"/>
<path d="M0 0 C0.33 0 0.66 0 1 0 C1 3.63 1 7.26 1 11 C0.67 11 0.34 11 0 11 C0 9.02 0 7.04 0 5 C-0.66 5 -1.32 5 -2 5 C-2 5.66 -2 6.32 -2 7 C-2.66 7 -3.32 7 -4 7 C-4 5.68 -4 4.36 -4 3 C-2.68 3 -1.36 3 0 3 C0 2.01 0 1.02 0 0 Z " fill="#505343" transform="translate(10,15)"/>
<path d="M0 0 C0 2.97 0 5.94 0 9 C-0.33 8.34 -0.66 7.68 -1 7 C-1.66 7 -2.32 7 -3 7 C-3 5.02 -3 3.04 -3 1 C-1 0 -1 0 0 0 Z " fill="#AE9A48" transform="translate(20,4)"/>
<path d="M0 0 C0.99 0.33 1.98 0.66 3 1 C2.67 2.32 2.34 3.64 2 5 C0.68 5 -0.64 5 -2 5 C-2 3.68 -2 2.36 -2 1 C-1.34 0.67 -0.68 0.34 0 0 Z " fill="#BAA349" transform="translate(15,18)"/>
</svg>
