<svg width="192" height="192" viewBox="0 0 192 192" fill="none" xmlns="http://www.w3.org/2000/svg">
  <!-- Fundo Azul Marinho -->
  <rect width="192" height="192" rx="32" fill="#0A1647"/>
  
  <!-- Frasco de Esmalte -->
  <g transform="translate(96, 110)">
    <!-- Pincel/Tampa Superior -->
    <circle cx="0" cy="-75" r="10" fill="#B89627"/>
    <rect x="-6" y="-75" width="12" height="40" rx="2" fill="url(#brush-gradient)"/>
    <circle cx="0" cy="-35" r="7" fill="#D4AF37"/>
    
    <!-- Tampa Rosqueada -->
    <path d="M-22,-35 Q-24,-30 -24,-25 L-24,-15 L24,-15 L24,-25 Q24,-30 22,-35 Z" 
          fill="#B89627"/>
    <rect x="-22" y="-31" width="44" height="3" fill="#D4AF37"/>
    <rect x="-22" y="-25" width="44" height="3" fill="#D4AF37"/>
    
    <!-- Corpo do Frasco (cilíndrico típico de esmalte) -->
    <rect x="-26" y="-15" width="52" height="70" rx="3" 
          fill="url(#bottle-gradient)" 
          stroke="#EFE3B3" 
          stroke-width="2.5"/>
    
    <!-- Brilhos no Vidro -->
    <rect x="-20" y="-10" width="8" height="60" rx="4" fill="white" opacity="0.25"/>
    <rect x="15" y="0" width="5" height="45" rx="2.5" fill="white" opacity="0.15"/>
    
    <!-- Base do Frasco -->
    <ellipse cx="0" cy="55" rx="24" ry="6" fill="#8B711D" opacity="0.3"/>
  </g>
  
  <!-- Decoração: Estrelinhas -->
  <g opacity="0.7">
    <circle cx="45" cy="45" r="3" fill="#D4AF37"/>
    <circle cx="147" cy="48" r="2.5" fill="#D4AF37"/>
    <circle cx="48" cy="147" r="2" fill="#D4AF37"/>
    <circle cx="145" cy="145" r="3" fill="#D4AF37"/>
  </g>
  
  <defs>
    <linearGradient id="brush-gradient" x1="0%" y1="0%" x2="0%" y2="100%">
      <stop offset="0%" stop-color="#FBF8EC"/>
      <stop offset="50%" stop-color="#D4AF37"/>
      <stop offset="100%" stop-color="#B89627"/>
    </linearGradient>
    
    <linearGradient id="bottle-gradient" x1="-20%" y1="0%" x2="20%" y2="100%">
      <stop offset="0%" stop-color="#F7F1D9"/>
      <stop offset="25%" stop-color="#DFC267"/>
      <stop offset="50%" stop-color="#D4AF37"/>
      <stop offset="75%" stop-color="#B89627"/>
      <stop offset="100%" stop-color="#D4AF37"/>
    </linearGradient>
  </defs>
</svg>
