<?xml version="1.0" encoding="UTF-8"?>
<svg id="Camada_2" data-name="Camada 2" xmlns="http://www.w3.org/2000/svg" viewBox="0 0 1012.73 332.57">
  <defs>
    <style>
      .cls-1 {
        fill: #eaca41;
      }

      .cls-1, .cls-2 {
        stroke-width: 0px;
      }

      .cls-2 {
        fill: #f4f4f8;
      }
    </style>
  </defs>
  <g id="Camada_1-2" data-name="Camada 1">
    <g>
      <path class="cls-1" d="M90.1,174c-1.98-6.95,6.22-16.29,13.48-16.82,8.66-.62,17.31-.14,25.97-.32,6.86-.14,10.33-3.74,10.49-10.55.07-2.87-.25-4.81-3.89-4.66-3.26.13-4.86-2.05-4.82-5.11.17-15.8.06-31.6,1.03-47.4.5-8.14.24-16.32.42-24.47.28-12.65.32-25.32,1.03-37.95.92-16.45,4.02-20.27,19.9-23.78,11.93-2.63,24.12-2.98,36.18-.41,15.71,3.35,20.97,10.43,21.2,26.5.47,32.3,1.31,64.6,1.97,96.9.06,2.83.05,5.67-.08,8.49-.13,2.99-1.84,4.81-4.59,5.88-2.1.82-5.41.14-5.31,3.93.11,4.07.64,8,4.51,10.44,2.48,1.56,5.25,2,8.13,2.04,6.83.11,13.66.04,20.48.4,10.37.54,16.47,7,16.5,17.38.07,25.65.04,51.3.03,76.95,0,20.82.03,41.64-.06,62.46-.04,10.51-8.37,18.64-18.92,18.64-42.14,0-84.28,0-126.43-.03-9.84,0-17.02-7-17.23-16.56.96-.3.49-1.09.49-1.65.02-39.39.08-78.78-.02-118.17-.02-7.38.63-14.78-.46-22.14ZM93.91,244.3h.02c0,2,0,4,0,5.99.11,22.31.35,44.62.23,66.92-.03,5.26,6.54,10.92,11.87,10.92,41.46-.02,82.92.04,124.39.08,1.83,0,3.73.26,5.48-.12,4.13-.91,8.98-1.96,10.59-5.93,1.39-3.43,1.98-7.51,1.96-11.6-.18-42.63-.11-85.26-.11-127.88,0-2.83.14-5.68-.1-8.49-.69-7.97-4.9-13.21-13.26-12.83-6.48.29-12.99,0-19.48-.08-9.94-.12-15.66-5.06-16.53-14.88-.31-3.5-1.61-4.53-4.92-4.5-15.15.12-30.31.14-45.46,0-3.28-.03-4.25,1-4.34,4.26-.28,10.24-5.4,15.09-15.65,15.2-6.66.07-13.32-.07-19.98.04-10.62.17-14.68,4.37-14.68,14.97,0,22.65,0,45.29,0,67.94ZM137.31,78.89c-.62,0-1.24,0-1.85,0,0,18.14.09,36.29-.08,54.43-.03,3.41,1.1,4.19,4.29,4.17,20.48-.13,40.96-.06,61.44-.11,6.8-.01,7.8-1.02,7.78-7.83-.08-33.96-2.25-67.89-1.85-101.87.01-1-.17-1.99-.2-2.99-.26-9.12-5.24-14.17-13.76-16.55-13.31-3.73-26.61-3.28-39.92-.27-3.22.73-6.46,1.78-9.38,3.28-5.77,2.97-6.39,8.7-6.43,14.29-.13,17.81-.05,35.63-.05,53.44Z"/>
      <path class="cls-1" d="M42.21,33.55c.76-1.41,1.25-2.47,1.86-3.45,3.25-5.26,7.03-5.61,11.23-.91,5.14,5.76,6.34,13.06,7.38,20.3.49,3.41-.84,7.15-.51,10.28.63,6.09-1.2,12.75,4.36,18.19,12.25,11.98,23.92,24.56,35.86,36.87,1.1,1.13,2.19,3.29,3.93,2.41,1.6-.81.73-3.09.45-4.53-1.71-8.78-3.73-17.51-5.48-26.29-.5-2.5-2.06-3-4.17-3.48-12.89-2.9-20.74-12.6-21.51-25.8-1.04-17.84-.27-35.61,1.38-53.36.12-1.32-.05-2.82,1.32-3.56,1.34-.72,2.2.41,2.93,1.25,11.41,13.16,24.47,25.13,30.64,42.1,3.27,8.98,3.87,18.09,1.2,27.36-.86,2.99-2.28,5.88-4.77,7.4-4.02,2.45-3.6,5.32-2.79,9.21,2.25,10.71,3.81,21.57,5.99,32.3,1.82,8.96,6.36,16.68,12.01,23.8.82,1.03,2.78,2.02,1.74,3.67-1.14,1.81-3.04,1.54-4.92.88-2.16-.76-4.48-1.1-6.59-1.96-5.17-2.09-9.15-2.07-14.2,2-9.36,7.54-20.99,7.66-32.41,5.58-14.25-2.59-25.78-10.99-37.72-18.42-2.72-1.69-2.3-3.32.36-4.68,11.52-5.9,23.13-11.36,36.55-11.32,7.17.02,14.33-.3,21.05,2.73,6.7,3.03,12.07,7.51,15.14,14.42,1.23,2.77,10.29,7.39,12.97,6.47,2.82-.97,1.15-2.93.44-4.42-3.69-7.7-8.67-14.42-14.69-20.54-11.91-12.09-23.48-24.52-35.22-36.79-4.87-5.09-10.73-5.32-16.37-.73-6.22,5.06-13.27,8.14-21.27,8.93-3.59.35-7.02-.31-10.02-2.29-2.94-1.94-4.63-4.66-2.29-8,1.77-2.53.62-3.23-1.52-4.28-7.83-3.82-8.65-6.58-3.72-13.69,1.48-2.13-.08-2.58-.99-3.52-3.37-3.47-6.65-6.99-8.67-11.47-1.3-2.89-1.95-5.84.48-8.38,2.48-2.61,5.75-2.49,8.85-1.46,1.24.41,2.51.71,3.72,1.13,5.18,1.79,9,2.71,9.01-5.32,0-4.22,4.94-6.01,9.18-4.36,1.69.66,3.32,1.52,4.89,2.43,1.57.91,3.03,2.01,4.93,3.28ZM80.7,13.8c-3.57,14.49-3.34,28.33-2.12,42.16.97,11.09,6.01,19.55,17.01,23.56,1.09.4,2.21,1.2,3.27.35,1.08-.87.55-2.07.25-3.22-1.74-6.74-3.23-13.55-5.13-20.25-3.98-14.01-8.05-28.01-13.28-42.61ZM84.83,11.92c1.7,9.12,4.91,16.22,7.17,23.58,3.35,10.9,6.99,21.72,9.35,32.9.65,3.07,1.14,8.31,3.1,8.3,3.63-.02,4.5-4.64,5.45-7.96,4.06-14.18-.82-26.53-8.35-38.11-4.3-6.61-9.49-12.6-16.72-18.71ZM50.67,135.39c-2.09,0-4.75-.06-7.41.03-1.41.05-3.57-.84-4.03.75-.52,1.82,1.28,3.35,2.9,4.05,6.83,2.96,13.02,7.33,20.34,9.23,11.04,2.86,21.96,3.77,32.49-1.85,1.74-.93,3.74-2.15,3.61-4.3-.15-2.44-2.82-2.1-4.37-2.42-14.17-2.95-28.55-4.31-43.55-5.48ZM9.52,39.31c-2.47.24-4.87-.52-6,1.54-1.16,2.11.23,4.13,1.34,5.98.43.71.92,1.4,1.49,1.99,9.22,9.67,20.97,14.44,33.7,17.28,1.72.38,3.24.09,4.1-1.86.76-1.71.76-3.21-.5-4.6-1.45-1.6-2.9-3.21-4.46-4.69-8.56-8.1-18.43-13.69-29.66-15.65ZM40.01,131.32c8.34.45,16.47,0,24.6,1.07,10.05,1.31,20.15,2.19,29.97,4.9,1.15.32,2.79,1.08,3.64-.35.66-1.11-.53-2.2-1.11-3.11-2.99-4.65-7.26-7.77-12.51-9.32-14.78-4.34-28.91-1.68-42.68,4.28-.91.39-1.83.81-1.89,2.54ZM25.6,36.96c-.05.95.61,2.82,2.25,4.18,2.56,2.12,5.29,4.03,7.81,6.2,3.78,3.25,7.42,6.66,11.16,9.96,1.18,1.05,2.63,1.74,4.05.65,1.37-1.05-.08-2.05-.42-3.05-1.66-4.74-4.14-9.06-6.8-13.28-2.7-4.29-6.11-7.92-10.77-10.13-4-1.9-7.12,0-7.27,5.47ZM29.74,74.47c3.43-.38,7.71-.85,12-1.35.8-.09,1.82-.16,1.78-1.23-.02-.5-.67-1.29-1.16-1.4-8.62-1.81-16.67-5.4-25.09-7.81-2.62-.75-5,.15-5.97,3.07-.96,2.9.96,4.39,3.09,5.5,4.52,2.34,9.45,2.99,15.35,3.21ZM58.5,52.01c.06-7.94-1.93-15.65-4.99-19.77-.99-1.33-1.93-2.93-3.9-2.52-2,.42-2.84,2.19-3.48,3.9-.77,2.06.27,3.87,1.13,5.66,2.14,4.46,4.29,8.92,6.4,13.39.94,1.99.84,5.8,3.27,5.36,2.89-.52.88-4.22,1.56-6.03ZM47.5,76.47c-8.15.98-16.2,1.18-24.24,1.57-2.16.1-4.77.69-4.79,3.39-.02,3.07,2.7,4.19,5.22,4.28,9.11.33,17.18-2.46,23.81-9.24ZM52.95,61.98c-4.72.06-5.94,1.55-5.82,6.8.11,4.94,4.06,4.54,7.1,4.89,4.07.48,4.69-3.5,4.56-5.69-.17-2.84-.99-6.87-5.83-6Z"/>
      <path class="cls-2" d="M390.61,207.99c14.29-10.21,24.2-9.96,29.73.47,1.68-.49,2.73-1.86,3.91-2.96,5.19-4.84,11.49-5.24,17.95-4.28,5.09.76,9.34,6.18,9.5,12.44.31,11.88.23,23.78.22,35.67,0,4.05-3.23,3.82-5.91,3.93-2.79.12-4.04-1.01-3.98-4.22.23-10.97.05-21.95.07-32.93,0-3.76-1-7.11-4.45-8.96-3.53-1.9-7.05-.98-10.36.98-4.21,2.5-6.49,5.62-6.19,11.07.55,9.9,0,19.86.33,29.78.13,4.06-2.16,4.49-4.97,4.42-2.66-.07-4.96-.45-4.85-4.39.28-10.45.03-20.91.16-31.36.03-2.37-.59-4.6-1.16-6.75-1.2-4.51-7.97-6.3-12.72-3.53-4.75,2.77-8.12,5.96-7.61,12.54.74,9.48.22,19.06.23,28.6,0,3.58-1.39,4.87-5.43,4.85-3.11-.01-4.46-1.25-4.4-4.76.24-13.85.1-27.7.13-41.55,0-3.83,4.47-7.59,8.32-7.19,1.55.16,1.49,1.16,1.5,2.22.01,1.79,0,3.58,0,5.9Z"/>
      <path class="cls-2" d="M290.74,215.18c0-10.71-.02-21.42,0-32.13.01-4.79.65-5.4,5.46-5.4,8.75.01,17.5.04,26.25.06,1.69,0,3.49-.33,3.51,2.36.02,2.46-1.21,3.14-3.4,3.12-6.27-.03-12.54.13-18.8-.02-2.78-.06-3.56.88-3.49,3.64.21,7.31.16,14.63.06,21.94-.03,2.2.59,2.88,2.88,2.78,4.82-.21,9.66-.09,14.49-.03,1.98.03,4.24.09,4.24,2.86,0,3-2.43,2.45-4.31,2.49-4.7.09-9.4.24-14.1.13-2.64-.06-3.32,1.02-3.28,3.49.13,7.96.14,15.93.02,23.9-.03,2.24.66,2.95,2.88,2.92,6.27-.11,12.54.02,18.8-.03,2-.02,3.74,0,3.74,2.67,0,2.5-1.51,2.9-3.63,2.89-9.01-.05-18.02-.05-27.03.05-3.13.03-4.38-1.11-4.34-4.39.16-11.1.06-22.2.06-33.3Z"/>
      <path class="cls-2" d="M493.51,244.95c-4.8,3.59-9.04,6.79-14.31,8.16-6.3,1.65-12.16-.25-14.83-4.86-3-5.17-1.83-11.74,3.03-16.34,5.74-5.43,12.84-7.07,20.49-7.12,6.25-.05,6.27-.11,6.06-6.46-.06-1.69-.13-3.42-.53-5.05-1.42-5.74-6.39-8.22-12.59-6.28-4.12,1.29-7.92,3.32-11.51,5.7-1.04.69-2.12,1.4-3.17.56-1.11-.89-.41-2.09,0-3.21.62-1.67,1.6-3,3.16-3.82,7.28-3.84,14.94-6.14,23.24-5.05,6.11.81,10.54,6.07,10.65,12.61.21,12.26.22,24.53.35,36.79.01,1.03-.19,1.68-1.23,2.11-5.42,2.24-8.59.18-8.58-5.63,0-.48-.11-.97-.24-2.11ZM494.03,232.99c-.07-5.7,1.09-4.52-5.71-4.45-2.33.03-4.73.22-6.95.85-3.85,1.09-7.04,3.21-8.79,7.07-2.17,4.8.31,10.37,5.07,10.99,5.34.69,9.36-2.23,13.49-5.03,3.19-2.16,2.81-5.24,2.89-9.44Z"/>
      <path class="cls-2" d="M709.86,245.15c-4.77,3.32-9.15,6.78-14.71,8.04-6.57,1.5-11.8-.37-14.57-5.31-2.58-4.59-1.52-11.09,2.67-15.44,5.85-6.06,13.31-7.71,21.39-7.7,5.62.01,5.62-.07,5.59-5.78,0-.78,0-1.57-.03-2.35-.33-8.52-6.71-12.5-14.65-9.12-3.48,1.48-6.83,3.21-9.92,5.37-.98.69-1.99.98-2.89.48-1.28-.72-.22-1.8-.08-2.76.34-2.31,1.78-3.9,3.69-4.75,6.03-2.66,12.11-5.11,18.96-4.89,8.75.28,13.99,4.8,14.23,13.55.34,12,.16,24,.28,36.01.02,2.12-1.23,2.28-2.77,2.33-2.3.08-4.93,1.58-6.39-1.71-.81-1.82-.22-3.8-.81-5.98ZM710.25,234.58c0-1.57,0-3,0-4.43,0-.81-.03-1.66-1.09-1.69-6.44-.17-12.91-.14-17.97,4.68-2.71,2.58-3.7,6.06-2.55,9.7.81,2.57,2.59,4.62,5.57,4.8,5.58.35,9.83-2.61,14.11-5.68,2.91-2.09,1.48-4.97,1.94-7.38Z"/>
      <path class="cls-2" d="M574.62,228.54c-.28-9.3,3.4-17.13,9.57-23.76,3.74-4.01,8.68-5.95,14.21-4.68,4.94,1.14,8.95,3.76,9.9,9.29,1.02,5.98-.27,11.03-5.63,14.74-4.72,3.28-9.96,5.06-15.47,6.08-2.94.55-3.56,1.99-3.25,4.6.76,6.3,5.13,11.21,10.98,12.16,5.07.83,12.34-3.22,14.16-8.38.6-1.69,1.48-1.59,2.51-1.49,1.42.13,1.45,1.47,1.27,2.43-.2,1.12-.71,2.23-1.28,3.22-4.6,7.95-14.44,12.56-22.49,10.59-7.69-1.89-13.94-10.2-14.48-19.33-.11-1.82-.02-3.65-.02-5.48ZM602.28,211.55c.44-3.21-1.29-5.85-4.41-7.08-3.23-1.28-5.69.61-7.61,3.23-2.1,2.85-3.8,5.93-4.93,9.25-1.03,3.01-3.14,6.96-1.02,9.11,1.68,1.7,5.52-.69,8.26-1.85.47-.2,1.01-.28,1.46-.52,4.7-2.53,8.34-5.82,8.27-12.14Z"/>
      <path class="cls-2" d="M347.53,253.61c-2.96.48-6.26-.52-9.6-.98-1.69-.23-3.38-.86-3.99-2.71-.49-1.48-.99-3.22.29-4.44,1.16-1.12,2.62-.61,3.95.19,4.43,2.66,9.23,3.34,14.29,2.62,3.56-.51,6.12-2.43,7.13-5.81,1.01-3.4-.58-6.05-3.35-8.08-4.73-3.48-10.36-5.35-15.25-8.55-8.12-5.31-9.81-14.4-3.84-20.6,3.15-3.28,7.22-4.36,11.57-5,4.51-.66,8.91,1.07,13.47.33,1.04-.17,4.26.73,3.57,3.34-.62,2.34-1.8,4.81-5.26,3.49-3.78-1.44-7.61-2.75-11.79-2.01-3,.53-5.51,1.7-6.32,4.94-.84,3.36.51,5.87,3.43,7.52,3.69,2.08,7.43,4.09,11.16,6.1,5.4,2.9,10.48,6.13,11.38,12.91,1.15,8.71-5.82,16.12-15.65,16.75-1.56.1-3.13.01-5.17.01Z"/>
      <path class="cls-2" d="M546.25,224.66c0-6.01-.11-10.71.05-15.41.07-2.16-.37-3.21-2.75-2.83-1.15.18-2.35.04-3.52.05-1.2.01-2.39.13-2.3-1.72.07-1.45-.15-2.93,1.67-3.49.25-.08.51-.08.77-.11,1.91-.22,4.51.92,5.59-.53,1.34-1.8.35-4.52.45-6.84.07-1.82-.01-3.66-.02-5.48-.02-4.5,4.05-7.4,8.46-6.16,1.61.45,1.05,1.61,1.06,2.49.07,4.44.23,8.89-.04,13.31-.18,2.89.84,3.66,3.47,3.22,1.02-.17,2.09,0,3.13-.05,1.4-.06,2.71-.06,2.54,1.92-.14,1.69-.02,3.5-2.61,3.43-2.04-.06-5.35-.57-5.88.36-1.02,1.81-.55,4.5-.56,6.82-.04,7.7.01,15.41-.03,23.11-.01,2.37.28,4.68.92,6.96,1.27,4.46,3.14,5.64,7.46,4.08,1.76-.64,2.53-.46,2.62,1.28.07,1.29,1.51,2.89-1.09,3.74-9.31,3.02-16.33-.82-18.62-10.34-1.52-6.33-.38-12.76-.75-17.82Z"/>
      <path class="cls-2" d="M528.39,211.12c0,12.28,0,24.56,0,36.84,0,4.33-4.38,6.8-8.36,4.84-1.29-.64-1.11-1.63-1.11-2.62-.03-24.95-.04-49.9-.09-74.86,0-1.42.13-2.71,1.76-2.99,2.39-.41,4.46-2.68,6.96-1.67,1.24.5.74,2.36.74,3.62.03,12.28.02,24.56.02,36.84h.07Z"/>
      <path class="cls-1" d="M35.43,179.76c2.13.22,1.64,2.07,1.62,3.41-.07,5.57,1.58,10.81,2.68,16.18,1.57,7.68,6.61,11.23,13.75,12.48,3.42.6,6.78,1.72,10.34,1.55,1.23-.06,2.88-.19,2.96,1.79.09,2.09-1.4,2.32-3,2.47-5.32.5-10.49,1.53-15.5,3.53-4.37,1.75-7.16,4.7-8.38,9.19-1.58,5.79-2.99,11.59-2.86,17.68.03,1.28.71,3.25-1.72,3.42-2.73.19-2.2-1.91-2.28-3.45-.26-5.16-.87-10.22-2.56-15.16-3.08-9.02-7.99-12.96-17.33-13.46-.66-.04-1.48.27-1.96-.02-2.1-1.27-6.05-.83-6.08-3.67-.03-2.28,3.47-2.18,5.63-2.67,18.21-4.11,21.63-8.28,22.21-27.1.04-1.33.06-2.67.13-4,.07-1.35.73-2.17,2.36-2.17Z"/>
      <path class="cls-2" d="M632.35,211.53c2.32-3.17,4.16-5.97,6.29-8.52,2.36-2.82,5.3-3.53,8.71-1.68,3.77,2.04,4.27,6.48,1.03,9.37-1.06.95-1.6.04-2.31-.41-3.24-2.09-5.82-1.25-8.1,1.65-3.23,4.12-5.24,8.51-5.05,13.97.28,7.95-.16,15.94.24,23.88.2,3.99-2.49,3.42-4.46,3.5-2.31.1-5.13.34-5.07-3.6.15-9.53.11-19.06.09-28.59,0-4.42.31-8.87-1.11-13.2-.56-1.71,4.37-6.93,6.25-6.86,1.3.04,1.25,1.06,1.45,1.93.61,2.65,1.27,5.29,2.05,8.56Z"/>
      <path class="cls-2" d="M668.22,226.57c0,7.71-.2,15.43.08,23.13.16,4.33-3.05,3.36-5.06,3.47-1.97.11-4.81.58-4.77-3.32.15-14.77.04-29.54.07-44.31,0-2.65,6.53-6.7,8.88-5.63,1.29.59.89,1.74.89,2.74.01,7.97,0,15.94,0,23.92-.03,0-.07,0-.1,0Z"/>
      <path class="cls-2" d="M626.83,101.22c-4.73,9.31-9.42,18.65-14.22,27.93-1.3,2.52-2.05,5.57-5.94,5.71-4.2.15-5.38-2.85-6.84-5.72-4.97-9.8-9.94-19.6-15.41-30.38-1.9,3.29-1.4,5.92-1.46,8.44-.3,13.27-.69,26.54-.85,39.82-.04,3.6-.87,5.47-4.98,5.42-4.78-.06-3.41-3.37-3.34-5.69.58-20.85,1.38-41.69,1.92-62.54.09-3.34,1.69-5.12,4.43-5.9,3-.86,3.5,2.14,4.34,3.85,5.73,11.59,11.18,23.32,16.92,34.9,1.51,3.04,2.15,6.75,5.71,8.87,6.75-14.2,13.35-28.3,20.2-42.29,1.02-2.08,1.22-5.75,5.22-4.95,3.77.75,3.18,3.73,3.28,6.41.71,20.3,1.47,40.61,2.13,60.91.09,2.67,1.58,6.14-3.54,6.4-5.01.26-5.1-2.94-5.12-6.29-.05-14.79-.02-29.58-.02-44.37-.81-.18-1.62-.36-2.44-.54Z"/>
      <path class="cls-2" d="M733.98,116.19c0-9.75.18-19.51-.08-29.26-.12-4.67,1.14-7.19,6.27-7.04,7.03.21,14.07.04,21.1.16,9.04.16,15.64,4.28,18.57,12.93,3.05,9.02-.08,19.47-7.96,24.58-5.09,3.3-5.16,5.65-1.93,10.31,3.82,5.5,6.83,11.6,9.75,17.66.91,1.89,5.06,4.59.92,6.43-2.78,1.24-6.82,1.57-8.94-2.89-3.56-7.51-7.93-14.65-11.3-22.23-3.72-8.35-9.72-2.39-14.58-2.72-5.04-.35-3.06,4.08-3.16,6.61-.23,5.68-.23,11.38-.01,17.07.14,3.65-1.36,4.61-4.78,4.59-3.4-.02-4.07-1.6-4.04-4.5.08-10.57.03-21.13.03-31.7h.14ZM742.57,101.27q0,14.97,15,13.9c10.07-.72,14.18-5.08,13.88-14.73-.29-9.03-4.73-13.07-14.6-13.28q-14.29-.31-14.28,14.1Z"/>
      <path class="cls-2" d="M393.97,115.97c0-10.03,0-20.07,0-30.1,0-2.72-.4-5.51,3.66-5.84,10.56-.84,21.08-1.35,31.36,1.98,7.06,2.29,12.11,6.82,15.05,13.66,6.16,14.37,5.15,28.64-1.69,42.3-4.85,9.67-14.64,12.41-24.4,13.87-23.64,3.55-24,3.09-23.94-20.42.01-5.15,0-10.3,0-15.46h-.05ZM401.62,115.13h-.05c0,8.12-.04,16.25.03,24.37.02,2.03-.58,4.32,2.39,5.29,8.95,2.91,28.22-3.72,31.5-11.97,4.67-11.76,5.98-24.11-.84-35.59-6.39-10.76-17.37-10.27-28.09-10.17-4.06.04-5.08,1.63-4.98,5.33.19,7.58.06,15.16.06,22.74Z"/>
      <path class="cls-2" d="M520.3,151.51c-7.04,2.69-10.61-.5-11.22-6.39-1.03-9.82-6.32-12.67-15.26-11.05-.79.14-1.62.02-2.43.02-14.95,0-15.44-.15-19.68,13.78-1.93,6.33-5.77,4.01-10.25,4.36,3.72-10.87,7.24-21.31,10.86-31.72,4.19-12.03,8.63-23.96,12.6-36.06,1.16-3.53,3.12-4.36,6.39-4.61,3.93-.3,4.36,2.73,5.22,5.05,4.11,11.1,8.04,22.27,12.01,33.42,3.87,10.87,7.72,21.76,11.77,33.19ZM490.94,90.38c-3.37,10.18-5.96,18.33-8.78,26.41-3.53,10.1-3.61,10.06,6.51,9.99,2.97-.02,5.97-.31,8.89.06,5.32.66,5.15-1.74,3.78-5.61-3.37-9.59-6.52-19.26-10.42-30.84Z"/>
      <path class="cls-2" d="M657.07,151.6c7.82-22.6,16.71-44.54,23.01-67.35.91-3.3,3.11-4.15,5.97-4.38,2.76-.22,4.6.96,5.57,3.66,7.77,21.77,15.59,43.52,23.35,65.29.42,1.17,1.02,3.1-.81,3.27-2.52.24-5.44,1.36-7.54-1.2-.48-.59-.5-1.53-.83-2.26-2.12-4.8-1.26-12.77-6.46-13.93-8.27-1.84-17.32-1.46-25.82-.31-4.12.55-4.46,6.63-5.44,10.65-1.38,5.7-3.89,9.26-11,6.57ZM698.66,126.89c-4.16-12.3-8.01-23.68-12.39-36.61-3.87,11.88-7.07,22.01-10.49,32.05-1.25,3.67-.33,4.79,3.52,4.63,6.16-.26,12.34-.07,19.36-.07Z"/>
      <path class="cls-2" d="M831.49,151.76c7.32-22.58,16.53-44.54,22.63-67.53.89-3.37,3.35-3.99,6.14-4.15,2.07-.12,4.1-.45,5.14,2.5,7.74,22.08,15.68,44.1,23.51,66.15.52,1.47,1.16,3.43-1.45,3.48-2.31.05-5,1.11-6.76-1.34-.6-.83-.54-2.1-1.01-3.05-2.23-4.48-2.34-12.31-6.22-13.14-8.27-1.78-17.3-1.25-25.82-.15-4.15.54-4.24,6.5-5.1,10.17-1.52,6.5-4.46,9.4-11.06,7.05ZM860.47,90.11c-4.03,12.23-7.32,22.29-10.68,32.34-.79,2.37-1.15,4.42,2.31,4.27,6.79-.28,13.68.88,20.58-.57-4.03-11.89-7.82-23.09-12.2-36.04Z"/>
      <path class="cls-2" d="M311.14,139.54c5.66-17.82,11.12-35,16.59-52.18.57-1.8,1.05-3.68,1.91-5.34,1.47-2.82,4.24-2.15,6.45-1.55,2.97.8,1.26,3.02.73,4.63-7.11,21.5-14.32,42.97-21.35,64.5-.94,2.88-2.86,2.56-5.01,2.82-3.33.4-3.93-1.73-4.78-4.17-4.99-14.26-10.11-28.47-15.15-42.72-2.15-6.07-4.12-12.21-6.3-18.26-1-2.77-3.25-5.78,1.6-6.95,3.34-.8,5.15.3,6.32,4.16,5.4,17.8,11.31,35.45,17.07,53.13.15.45.73.76,1.91,1.94Z"/>
      <path class="cls-1" d="M983.74,84.25c1.1.87,2.65,1.93,3.98,3.21,7.62,7.33,15.12,14.79,22.8,22.06,2.7,2.56,3.14,4.29.09,7.18-8.27,7.82-16.18,16.01-24.19,24.1-2.87,2.9-4.82,3.33-8.12-.27-6.94-7.58-14.62-14.48-22.17-21.48-3.16-2.93-3.92-5.17-.38-8.57,8.01-7.7,15.65-15.78,23.46-23.68,1.12-1.13,2.06-2.59,4.52-2.53ZM1003.21,115.58c-1.11-5.43-4.29-6.98-6.53-9.2-13.8-13.67-13.49-13.26-27.46.33-6.2,6.03-5.78,9.27.36,14.92,13.58,12.51,13.2,12.82,26.21-.14,2.47-2.46,5.48-4.39,7.42-5.91Z"/>
      <path class="cls-2" d="M366.97,116.26c0,10.27,0,20.54,0,30.81,0,3.35.08,6.91-4.63,6.87-4.66-.05-3.72-3.97-3.73-6.6-.1-20.27,0-40.54.02-60.81,0-3.35-.27-6.67,4.69-6.61,5.02.05,3.64,3.69,3.67,6.35.1,10,.04,20,.04,30h-.06Z"/>
      <path class="cls-2" d="M812.6,116.56c0,10.01-.01,20.01,0,30.02,0,3.19-.14,5.79-4.6,5.85-5.29.07-3.62-3.39-3.62-6.07,0-19.74.04-39.48.06-59.22,0-3.45-.93-7.56,4.73-7.19,5.45.36,3.4,4.6,3.45,7.4.18,9.73.07,19.47.07,29.21h-.1Z"/>
      <path class="cls-1" d="M90.1,174c1.09,7.36.44,14.77.46,22.14.09,39.39.04,78.78.02,118.17,0,.56.47,1.35-.49,1.65,0-47.34,0-94.65.01-141.97Z"/>
      <path class="cls-2" d="M664.29,190.93c-3.87-.04-5.56-2.09-5.68-5.08-.13-3.02,1.84-4.77,4.85-4.94,3.21-.17,5.31,2.1,5.16,5.39-.14,3.05-1.48,4.9-4.33,4.63Z"/>
      <path class="cls-1" d="M230.37,242.85c0,15.83.04,31.66-.02,47.49-.04,10.68-4.89,15.58-15.47,15.59-29.49.03-58.98.02-88.48-.05-9.16-.02-14.55-4.79-14.61-13.89-.22-32.82-.21-65.65-.03-98.47.05-9.26,6.58-15.36,15.92-15.22,28.99.43,57.98.14,86.97.16,9.73,0,15.58,5.6,15.67,15.4.15,16.33.04,32.66.04,48.99ZM116.39,242.22h.02c0,16.15,0,32.29,0,48.44,0,7.51,3.23,10.88,10.66,10.88,29.3.01,58.59,0,87.89-.02,7.65,0,10.92-3.24,10.92-10.8.02-31.63.02-63.25,0-94.88,0-9.03-3.96-12.89-13.18-12.89-23.47,0-46.94,0-70.41,0-5.33,0-10.66-.11-15.98.07-6.24.22-9.92,4.17-9.92,10.26,0,16.31,0,32.62,0,48.94Z"/>
      <path class="cls-1" d="M188.97,66.05c0-12.14,0-24.27,0-36.41,0-1.33-.03-2.67.11-3.98.15-1.4.75-2.71,2.38-2.68,1.44.03,1.75,1.36,1.92,2.52.14.98.13,1.99.13,2.98.03,24.44.09,48.88.02,73.32,0,2.6,1.06,7.1-2.24,7.14-3.62.05-2.28-4.42-2.31-6.98-.14-11.97-.06-23.94-.06-35.91h.06Z"/>
      <path class="cls-1" d="M207.81,227.39c-2.54,3.34-5.01,6.73-7.65,9.99-3.04,3.74-6.13,7.46-9.41,11-1.66,1.79-3.71,3.88-6.48,2.64-2.57-1.15-3-3.87-3.06-6.4-.11-4.79-.03-9.58-.65-14.57-1.51,4.24-2.9,8.53-4.55,12.71-3.14,7.97-7.37,15.27-13.77,21.11-1.48,1.35-3.26,2.61-5.34,1.05-1.86-1.39-2.39-3.64-1.24-5.32.89-1.3,1.25-5.05,4.7-2.52,1.46,1.07,1.78-.95,2.42-1.66,6.71-7.5,9.77-16.86,13.09-26.06,2.14-5.93,4.06-11.94,5.91-17.97.51-1.65,1.15-2.62,2.98-2.69,1.84-.07,2.69.93,3.29,2.45,1.34,3.41.63,6.8.23,10.27-.91,7.85-1.57,15.73-2.34,23.74,2.58-.02,3.17-1.62,4.16-2.92,7-9.22,14.03-18.41,21.19-27.5,2.1-2.67,4.92-6.81,8.21-4.7,2.57,1.65-.35,5.73-1.63,8.54-7.25,15.93-12.12,32.61-15.6,49.72-.35,1.75-.62,3.36.86,5.1,1.65,1.95-.15,7.19-2.53,7.93-2.94.91-4.83-.04-4.97-3.49-.2-5.04.68-9.94,1.87-14.79,2.93-11.9,6.17-23.71,10.29-35.67Z"/>
      <path class="cls-1" d="M130.01,260.01c10.46-14.12,17.63-29.66,26.02-44.51,1.95-3.46,3.57-7.15,6.54-9.94.87-.82,1.9-1.6,3.03-.61.89.78.5,1.95.01,2.77-10.89,18.48-18.06,39.04-31.26,56.23-.61.79-1.21,1.58-1.87,2.34-1.35,1.57-2.9,2.93-5.14,2.33-2.5-.67-2.44-2.98-2.46-4.89-.11-10.82.33-21.63,1.47-32.37.53-4.94-.02-10.03,1.58-14.84.57-1.7-.03-4.69,2.85-4.43,2.8.25,2.06,2.98,2.13,4.84.42,11.84-1.96,23.5-2.29,35.3-.07,2.6-.4,5.18-.61,7.78Z"/>
    </g>
  </g>
</svg>